<svg xmlns="http://www.w3.org/2000/svg" viewBox="0 0 160 160" fill="none" role="img" aria-labelledby="title"><title id="title">Twin katana hilt pins</title><g stroke="#4A3A0C" stroke-width="2.8" stroke-linecap="round" stroke-linejoin="round"><g transform="rotate(-34 80 80)"><path d="M57 31h12v95H57z" fill="#A8976B"/><path d="M51 29h24v10H51zM51 119h24v10H51z" fill="#EFE6C8"/><path d="M91 31h12v95H91z" fill="#A8976B"/><path d="M85 29h24v10H85zM85 119h24v10H85z" fill="#EFE6C8"/><path d="m58 58 9 8-9 8 9 8-9 8m34-32 9 8-9 8 9 8-9 8"/></g><path d="M77 111c-14-11-22-18-22-26 0-10 15-12 22-3 7-9 22-7 22 3 0 8-8 15-22 26Z" fill="#6E5514"/><path d="M70 94h14" stroke="#EFE6C8"/></g></svg>
