<svg xmlns="http://www.w3.org/2000/svg" viewBox="0 0 160 160" fill="none" role="img" aria-labelledby="title"><title id="title">Sealed mission order</title><g stroke="#4A3A0C" stroke-width="2.8" stroke-linecap="round" stroke-linejoin="round"><path d="M28 42h104v79H28z" fill="#EFE6C8"/><path d="m29 43 51 39 51-39M28 120l37-43m67 43L95 77"/><path d="m35 36 87-7 4 13H35z" fill="#FBF8EE"/><circle cx="80" cy="84" r="20" fill="#6E5514"/><path d="m72 98-5 31 13-8 11 9-3-32" fill="#A8976B"/><circle cx="80" cy="84" r="15" fill="#6E5514"/><path d="m80 95-1-23m0 11-10-10m10 17-12-10m14 1 10-10m-10 17 12-10" stroke="#EFE6C8"/></g></svg>
